<?xml version="1.0" encoding="UTF-8" standalone="no"?>
<svg width="231px" height="232px" viewBox="0 0 231 232" version="1.1" xmlns="http://www.w3.org/2000/svg" xmlns:xlink="http://www.w3.org/1999/xlink" xmlns:sketch="http://www.bohemiancoding.com/sketch/ns">
    <!-- Generator: Sketch 3.3.3 (12081) - http://www.bohemiancoding.com/sketch -->
    <title>Untitled</title>
    <desc>Created with Sketch.</desc>
    <defs>
        <linearGradient x1="50%" y1="0%" x2="50%" y2="100%" id="linearGradient-1">
            <stop stop-color="#F80303" offset="0%"></stop>
            <stop stop-color="#FF0000" offset="100%"></stop>
        </linearGradient>
    </defs>
    <g id="Page-1" stroke="none" stroke-width="1" fill="none" fill-rule="evenodd" sketch:type="MSPage">
        <g id="Letter" sketch:type="MSArtboardGroup" transform="translate(-90.000000, -280.000000)">
            <g id="Untitled-+-Oval-1-+-Shape" sketch:type="MSLayerGroup" transform="translate(90.112828, 280.954184)">
                <circle id="Oval-1" fill="url(#linearGradient-1)" sketch:type="MSShapeGroup" cx="115.045816" cy="115.045816" r="115.045816"></circle>
                <path d="M149.966394,72.3068958 C149.966394,72.3068958 129.399393,81.9474452 115.90273,77.448646 C115.90273,77.448646 116.401004,78.6626077 117.123063,81.026289 C122.617348,81.8736465 126.828916,86.6084421 126.828916,92.3389889 C126.828916,96.470122 124.635662,100.07909 121.359319,102.096342 C123.591066,120.226659 124.028283,148.182288 115.902465,185.424604 C115.902465,185.424604 127.500006,185.277803 139.748197,177.895546 C136.774217,175.824139 134.824923,172.385864 134.824923,168.488073 C134.824923,162.158642 139.956586,157.02698 146.285751,157.02698 C150.384232,157.02698 153.969308,159.184927 155.995586,162.418796 C162.929742,152.180689 167.962387,137.389099 167.962387,116.01164 C167.962652,82.2991834 149.966394,72.3068958 149.966394,72.3068958 L149.966394,72.3068958 Z M141.033834,144.583408 C134.704668,144.583408 129.573006,139.451745 129.573006,133.121252 C129.573006,126.791821 134.704668,121.660424 141.033834,121.660424 C147.364592,121.660424 152.495989,126.791821 152.495989,133.121252 C152.495724,139.451745 147.364327,144.583408 141.033834,144.583408 L141.033834,144.583408 Z M155.315205,102.076432 C152.422987,103.364458 147.991881,99.7201839 145.415829,93.9384027 C142.840043,88.1563561 143.096215,82.4247474 145.988167,81.1367216 C148.879323,79.8486958 153.310429,83.4929699 155.886216,89.2736893 C158.462533,95.0567977 158.206361,100.788406 155.315205,102.076432 Z M108.777707,101.708766 C105.833724,99.633643 103.905401,96.2142158 103.905401,92.3392544 C103.905401,86.8460314 107.773195,82.2604259 112.932466,81.1430927 C113.675762,78.6979142 114.188902,77.448646 114.188902,77.448646 C100.691708,81.9477106 80.1252381,72.3068958 80.1252381,72.3068958 C80.1252381,72.3068958 62.1292451,82.2991834 62.1292451,116.01164 C62.1292451,137.047979 67.0044706,151.702325 73.7671371,161.920256 C75.8396056,158.964062 79.2667312,157.02698 83.1507184,157.02698 C89.4809458,157.02698 94.6128739,162.158642 94.6128739,168.488073 C94.6128739,172.254195 92.7888786,175.585488 89.9842634,177.67415 C102.363062,185.272494 114.189167,185.424338 114.189167,185.424338 C106.006805,147.922665 106.505345,119.826341 108.777707,101.708766 Z M75.2874429,102.076432 C72.3962868,100.788406 72.1403806,95.0567977 74.7161668,89.2736893 C77.2922184,83.4929699 81.7233246,79.8489612 84.6144806,81.1367216 C87.5066985,82.4247474 87.7626047,88.1563561 85.1868185,93.9384027 C82.6107669,99.7201839 78.1793953,103.364458 75.2874429,102.076432 L75.2874429,102.076432 Z M89.4445774,144.583408 C83.1154118,144.583408 77.9837492,139.451745 77.9837492,133.121252 C77.9837492,126.791821 83.1154118,121.660424 89.4445774,121.660424 C95.7753358,121.660424 100.906733,126.791821 100.906733,133.121252 C100.906467,139.451745 95.7750703,144.583408 89.4445774,144.583408 Z M82.0535604,66.7372195 C82.0535604,66.7372195 96.1931743,51.3119689 114.189167,51.3119689 L115.90273,51.3119689 C115.90273,51.3119689 139.253905,52.1680866 147.823843,66.7372195 C147.823843,66.7372195 141.183024,78.0926589 117.830787,75.3071571 C117.830787,75.3071571 118.258978,73.3791003 115.90273,73.3791003 C113.546482,73.3791003 113.546482,75.7464981 113.546482,75.7464981 C113.546482,75.7464981 92.0153198,76.6992443 82.0535604,66.7372195 Z M131.421955,56.2766553 C125.208265,53.8927988 119.827864,52.8545736 119.404982,53.9581027 C118.981834,55.0616318 123.675483,57.8898732 129.889172,60.2734642 C136.101534,62.6573207 141.483263,63.695546 141.90641,62.5920169 C142.329293,61.4887532 137.635644,58.6605118 131.421955,56.2766553 L131.421955,56.2766553 Z M89.6280122,62.5922823 C90.0508946,63.695546 95.4323577,62.6575862 101.644985,60.2737297 C107.858674,57.8901386 112.552323,55.0618973 112.129175,53.9583681 C111.706028,52.854839 106.325892,53.8930643 100.112203,56.2769208 C93.8982479,58.6605118 89.2048644,61.4887532 89.6280122,62.5922823 Z M107.057773,52.1027827 C107.057773,52.1027827 101.978672,44.4579832 91.9088692,44.6714153 C91.9088692,44.6714153 89.3375959,46.7428221 91.9088692,48.3847099 C91.9088692,48.3847099 103.132374,48.5015135 104.981322,52.6161879 L107.057773,52.1027827 Z M122.643629,52.1027827 C122.643629,52.1027827 127.722464,44.4579832 137.792532,44.6714153 C137.792532,44.6714153 140.363275,46.7428221 137.792532,48.3847099 C137.792532,48.3847099 126.568762,48.5015135 124.719814,52.6161879 L122.643629,52.1027827 Z" id="Shape" fill="#FFFFFF" sketch:type="MSShapeGroup"></path>
            </g>
        </g>
    </g>
</svg>