<?xml version="1.0" encoding="UTF-8" standalone="no"?>
<svg width="106px" height="142px" viewBox="0 0 106 142" version="1.1" xmlns="http://www.w3.org/2000/svg" xmlns:xlink="http://www.w3.org/1999/xlink" xmlns:sketch="http://www.bohemiancoding.com/sketch/ns">
    <!-- Generator: Sketch 3.3.3 (12081) - http://www.bohemiancoding.com/sketch -->
    <title>Shape Copy</title>
    <desc>Created with Sketch.</desc>
    <defs></defs>
    <g id="Page-1" stroke="none" stroke-width="1" fill="none" fill-rule="evenodd" sketch:type="MSPage">
        <g id="Letter" sketch:type="MSArtboardGroup" transform="translate(-416.000000, -325.000000)" fill="#000000">
            <path d="M503.891179,353.26108 C503.891179,353.26108 483.324178,362.901629 469.827515,358.40283 C469.827515,358.40283 470.325789,359.616792 471.047848,361.980473 C476.542133,362.827831 480.753701,367.562626 480.753701,373.293173 C480.753701,377.424306 478.560447,381.033274 475.284104,383.050526 C477.515851,401.180843 477.953068,429.136472 469.82725,466.378788 C469.82725,466.378788 481.424791,466.231987 493.672982,458.84973 C490.699002,456.778323 488.749708,453.340048 488.749708,449.442257 C488.749708,443.112826 493.881371,437.981164 500.210536,437.981164 C504.309018,437.981164 507.894094,440.139111 509.920372,443.37298 C516.854527,433.134874 521.887172,418.343283 521.887172,396.965824 C521.887437,363.253368 503.891179,353.26108 503.891179,353.26108 L503.891179,353.26108 Z M494.958619,425.537592 C488.629454,425.537592 483.497791,420.405929 483.497791,414.075436 C483.497791,407.746005 488.629454,402.614608 494.958619,402.614608 C501.289378,402.614608 506.420775,407.746005 506.420775,414.075436 C506.420509,420.405929 501.289112,425.537592 494.958619,425.537592 L494.958619,425.537592 Z M509.23999,383.030616 C506.347772,384.318642 501.916666,380.674368 499.340615,374.892587 C496.764828,369.11054 497.021,363.378931 499.912953,362.090906 C502.804109,360.80288 507.235215,364.447154 509.811001,370.227873 C512.387318,376.010982 512.131146,381.74259 509.23999,383.030616 Z M462.702492,382.66295 C459.758509,380.587827 457.830187,377.1684 457.830187,373.293438 C457.830187,367.800215 461.697981,363.21461 466.857251,362.097277 C467.600547,359.652098 468.113687,358.40283 468.113687,358.40283 C454.616493,362.901895 434.050023,353.26108 434.050023,353.26108 C434.050023,353.26108 416.05403,363.253368 416.05403,396.965824 C416.05403,418.002163 420.929256,432.656509 427.691922,442.874441 C429.764391,439.918246 433.191516,437.981164 437.075504,437.981164 C443.405731,437.981164 448.537659,443.112826 448.537659,449.442257 C448.537659,453.208379 446.713664,456.539672 443.909049,458.628334 C456.287847,466.226678 468.113953,466.378522 468.113953,466.378522 C459.931591,428.876849 460.43013,400.780525 462.702492,382.66295 Z M429.212228,383.030616 C426.321072,381.74259 426.065166,376.010982 428.640952,370.227873 C431.217004,364.447154 435.64811,360.803145 438.539266,362.090906 C441.431484,363.378931 441.68739,369.11054 439.111604,374.892587 C436.535552,380.674368 432.104181,384.318642 429.212228,383.030616 L429.212228,383.030616 Z M443.369363,425.537592 C437.040197,425.537592 431.908534,420.405929 431.908534,414.075436 C431.908534,407.746005 437.040197,402.614608 443.369363,402.614608 C449.700121,402.614608 454.831518,407.746005 454.831518,414.075436 C454.831253,420.405929 449.699856,425.537592 443.369363,425.537592 Z M435.978346,347.691404 C435.978346,347.691404 450.11796,332.266153 468.113953,332.266153 L469.827515,332.266153 C469.827515,332.266153 493.178691,333.122271 501.748628,347.691404 C501.748628,347.691404 495.107809,359.046843 471.755572,356.261341 C471.755572,356.261341 472.183764,354.333284 469.827515,354.333284 C467.471267,354.333284 467.471267,356.700682 467.471267,356.700682 C467.471267,356.700682 445.940105,357.653428 435.978346,347.691404 Z M485.34674,337.230839 C479.133051,334.846983 473.752649,333.808758 473.329767,334.912287 C472.906619,336.015816 477.600268,338.844057 483.813957,341.227648 C490.026319,343.611505 495.408048,344.64973 495.831196,343.546201 C496.254078,342.442937 491.560429,339.614696 485.34674,337.230839 L485.34674,337.230839 Z M443.552797,343.546466 C443.97568,344.64973 449.357143,343.61177 455.56977,341.227914 C461.78346,338.844323 466.477109,336.016081 466.053961,334.912552 C465.630813,333.809023 460.250677,334.847248 454.036988,337.231105 C447.823033,339.614696 443.12965,342.442937 443.552797,343.546466 Z M460.982558,333.056967 C460.982558,333.056967 455.903457,325.412167 445.833654,325.625599 C445.833654,325.625599 443.262381,327.697006 445.833654,329.338894 C445.833654,329.338894 457.057159,329.455698 458.906108,333.570372 L460.982558,333.056967 Z M476.568414,333.056967 C476.568414,333.056967 481.647249,325.412167 491.717318,325.625599 C491.717318,325.625599 494.28806,327.697006 491.717318,329.338894 C491.717318,329.338894 480.493548,329.455698 478.644599,333.570372 L476.568414,333.056967 Z" id="Shape-Copy" sketch:type="MSShapeGroup"></path>
        </g>
    </g>
</svg>